<svg preserveAspectRatio="none" overflow="visible" style="display: block;" width="16" height="16" viewBox="0 0 16 16" fill="none" xmlns="http://www.w3.org/2000/svg">
<g id="caret-double-right">
<path id="Vector" d="M8.85375 8.35375L3.85375 13.3538C3.75993 13.4476 3.63268 13.5003 3.5 13.5003C3.36732 13.5003 3.24007 13.4476 3.14625 13.3538C3.05243 13.2599 2.99972 13.1327 2.99972 13C2.99972 12.8673 3.05243 12.7401 3.14625 12.6463L7.79313 8L3.14625 3.35375C3.05243 3.25993 2.99972 3.13268 2.99972 3C2.99972 2.86732 3.05243 2.74007 3.14625 2.64625C3.24007 2.55243 3.36732 2.49972 3.5 2.49972C3.63268 2.49972 3.75993 2.55243 3.85375 2.64625L8.85375 7.64625C8.90024 7.69269 8.93712 7.74783 8.96228 7.80853C8.98744 7.86923 9.00039 7.93429 9.00039 8C9.00039 8.06571 8.98744 8.13077 8.96228 8.19147C8.93712 8.25217 8.90024 8.30731 8.85375 8.35375ZM13.8538 7.64625L8.85375 2.64625C8.75993 2.55243 8.63268 2.49972 8.5 2.49972C8.36732 2.49972 8.24007 2.55243 8.14625 2.64625C8.05243 2.74007 7.99972 2.86732 7.99972 3C7.99972 3.13268 8.05243 3.25993 8.14625 3.35375L12.7931 8L8.14625 12.6463C8.05243 12.7401 7.99972 12.8673 7.99972 13C7.99972 13.1327 8.05243 13.2599 8.14625 13.3538C8.24007 13.4476 8.36732 13.5003 8.5 13.5003C8.63268 13.5003 8.75993 13.4476 8.85375 13.3538L13.8538 8.35375C13.9002 8.30731 13.9371 8.25217 13.9623 8.19147C13.9874 8.13077 14.0004 8.06571 14.0004 8C14.0004 7.93429 13.9874 7.86923 13.9623 7.80853C13.9371 7.74783 13.9002 7.69269 13.8538 7.64625Z" fill="#0B0C0E"/>
</g>
</svg>
