<svg preserveAspectRatio="none" overflow="visible" style="display: block;" width="45.8691" height="20.5944" viewBox="0 0 45.8691 20.5944" fill="none" xmlns="http://www.w3.org/2000/svg">
<g id="Group">
<path id="Vector" d="M0 0.412805C0 0.183469 0.183469 0 0.412805 0H14.4176C14.6469 0 14.8304 0.183469 14.8304 0.412805V4.54085C14.8304 4.77019 14.6469 4.95366 14.4176 4.95366H5.77926C5.64166 4.95366 5.51935 5.07597 5.51935 5.21357V8.59245C5.51935 8.73005 5.64166 8.85237 5.77926 8.85237H12.1242C12.3536 8.85237 12.537 9.03583 12.537 9.26517V13.3932C12.537 13.6226 12.3536 13.806 12.1242 13.806H5.77926C5.64166 13.806 5.51935 13.9283 5.51935 14.0659V20.1816C5.51935 20.4109 5.33588 20.5944 5.10655 20.5944H0.412805C0.183469 20.5944 0 20.4109 0 20.1816V0.412805Z" fill="#2A3AD0"/>
<path id="Vector_2" d="M17.5213 0.412805C17.5213 0.183469 17.7047 0 17.9341 0H22.6278C22.8571 0 23.0406 0.183469 23.0406 0.412805V20.1663C23.0406 20.3956 22.8571 20.5791 22.6278 20.5791H17.9341C17.7047 20.5791 17.5213 20.3956 17.5213 20.1663V0.412805Z" fill="#2A3AD0"/>
<path id="Vector_3" d="M37.1677 0H27.4897C27.2604 0 27.0769 0.183469 27.0769 0.412805V20.1663C27.0769 20.3956 27.2604 20.5791 27.4897 20.5791H35.7764C50.5609 20.5791 47.4114 0 37.1677 0ZM36.7396 15.6254H33.0091C32.7797 15.6254 32.5963 15.4419 32.5963 15.2126V5.36646C32.5963 5.13712 32.7797 4.95365 33.0091 4.95365H34.9661C43.268 4.95365 41.7391 15.6254 36.7549 15.6254H36.7396Z" fill="#2A3AD0"/>
</g>
</svg>
